<svg width="119" height="34" viewBox="0 0 119 34" fill="none" xmlns="http://www.w3.org/2000/svg">
<path d="M42.6611 29V9.61523H40.293V7.51562H47.3853V9.61523H45.1758V29H42.6611ZM52.8662 29.2197C51.9873 29.2197 51.2793 29.0692 50.7422 28.7681C50.2132 28.4588 49.8104 28.0234 49.5337 27.4619C49.257 26.9004 49.0698 26.229 48.9722 25.4478C48.8826 24.6584 48.8379 23.7876 48.8379 22.8354V16.3657C48.8379 15.5031 48.8989 14.7137 49.021 13.9976C49.1431 13.2733 49.3547 12.6507 49.6558 12.1299C49.9569 11.6009 50.376 11.194 50.9131 10.9092C51.4502 10.6162 52.1338 10.4697 52.9639 10.4697C53.8021 10.4697 54.4775 10.6162 54.9902 10.9092C55.5029 11.2021 55.8895 11.6172 56.1499 12.1543C56.4185 12.6833 56.5975 13.318 56.687 14.0586C56.7765 14.791 56.8213 15.5967 56.8213 16.4756V19.9302H51.3525V23.5801C51.3525 24.7357 51.4299 25.6187 51.5845 26.229C51.7472 26.8312 52.1826 27.1323 52.8906 27.1323C53.3545 27.1323 53.6841 26.9899 53.8794 26.7051C54.0828 26.4121 54.2049 26.0052 54.2456 25.4844C54.2944 24.9554 54.3188 24.3328 54.3188 23.6167V22.1396H56.7725V22.9209C56.7725 23.873 56.7318 24.7357 56.6504 25.5088C56.5771 26.2819 56.4144 26.9451 56.1621 27.4985C55.9098 28.0519 55.5192 28.4792 54.9902 28.7803C54.4694 29.0732 53.7614 29.2197 52.8662 29.2197ZM51.3403 18.2334H54.3188V15.9019C54.3188 15.1694 54.2944 14.555 54.2456 14.0586C54.1968 13.554 54.0788 13.1756 53.8916 12.9233C53.7044 12.6629 53.3952 12.5327 52.9639 12.5327C52.4837 12.5327 52.1257 12.6792 51.8896 12.9722C51.6618 13.2651 51.5112 13.672 51.438 14.1929C51.3729 14.7056 51.3403 15.3037 51.3403 15.9873V18.2334ZM63.6938 29.2197C62.8068 29.2197 62.0907 29.0692 61.5454 28.7681C61.0083 28.467 60.5973 28.0356 60.3125 27.4741C60.0358 26.9045 59.8486 26.229 59.751 25.4478C59.6533 24.6584 59.6045 23.7835 59.6045 22.8232V16.6953C59.6045 15.4746 59.7062 14.3963 59.9097 13.4604C60.1131 12.5246 60.5119 11.7922 61.106 11.2632C61.7 10.7342 62.583 10.4697 63.7549 10.4697C64.5687 10.4697 65.2238 10.604 65.7202 10.8726C66.2248 11.1411 66.6073 11.5277 66.8677 12.0322C67.1362 12.5368 67.3153 13.139 67.4048 13.8389C67.5024 14.5387 67.5513 15.3159 67.5513 16.1704V17.4399H65.0854V15.8286C65.0854 15.1287 65.061 14.5428 65.0122 14.0708C64.9715 13.5907 64.8576 13.2285 64.6704 12.9844C64.4832 12.7402 64.1699 12.6182 63.7305 12.6182C63.2666 12.6182 62.9207 12.7524 62.6929 13.021C62.465 13.2814 62.3104 13.6598 62.229 14.1562C62.1558 14.6445 62.1191 15.2264 62.1191 15.9019V23.6899C62.1191 24.4468 62.1517 25.0775 62.2168 25.582C62.2819 26.0785 62.4243 26.4528 62.644 26.7051C62.8638 26.9492 63.2015 27.0713 63.6572 27.0713C64.0967 27.0713 64.4141 26.9411 64.6094 26.6807C64.8128 26.4121 64.943 26.0296 65 25.5332C65.057 25.0286 65.0854 24.4305 65.0854 23.7388V21.9688H67.5513V23.1528C67.5513 24.0562 67.5065 24.8781 67.417 25.6187C67.3275 26.3592 67.1484 26.998 66.8799 27.5352C66.6195 28.0723 66.2329 28.4873 65.7202 28.7803C65.2075 29.0732 64.5321 29.2197 63.6938 29.2197ZM70.5786 29V7.28369H73.0811V12.6304C73.2438 12.0607 73.5856 11.5562 74.1064 11.1167C74.6354 10.6772 75.2661 10.4575 75.9985 10.4575C76.9181 10.4575 77.6383 10.783 78.1592 11.4341C78.68 12.0851 78.9404 13.0739 78.9404 14.4004V29H76.438V14.6079C76.438 13.8592 76.2996 13.3424 76.0229 13.0576C75.7544 12.7646 75.3923 12.6182 74.9365 12.6182C74.6029 12.6182 74.2936 12.6995 74.0088 12.8623C73.724 13.0169 73.4961 13.2651 73.3252 13.6069C73.1624 13.9406 73.0811 14.376 73.0811 14.9131V29H70.5786ZM82.4072 29V7.51562H86.9116C88.0509 7.51562 88.8932 7.71908 89.4385 8.12598C89.9837 8.52474 90.3377 9.13102 90.5005 9.94482C90.6714 10.7505 90.7568 11.7677 90.7568 12.9966C90.7568 14.3231 90.6226 15.377 90.354 16.1582C90.0854 16.9395 89.5646 17.444 88.7915 17.6719C89.1821 17.737 89.5036 17.9038 89.7559 18.1724C90.0163 18.4409 90.2197 18.86 90.3662 19.4297C90.5127 19.9993 90.6144 20.7643 90.6714 21.7246C90.7365 22.6768 90.769 23.8771 90.769 25.3257C90.769 25.464 90.769 25.6634 90.769 25.9238C90.769 26.1842 90.7731 26.4691 90.7812 26.7783C90.7894 27.0876 90.7975 27.3927 90.8057 27.6938C90.8219 27.995 90.8423 28.2635 90.8667 28.4995C90.8911 28.7274 90.9237 28.8942 90.9644 29H88.4497C88.4172 28.9268 88.3887 28.764 88.3643 28.5117C88.3398 28.2594 88.3195 27.9258 88.3032 27.5107C88.2869 27.0957 88.2747 26.6034 88.2666 26.0337C88.2585 25.4559 88.2544 24.813 88.2544 24.105C88.2544 23.3888 88.2544 22.6076 88.2544 21.7612C88.2544 20.9474 88.2178 20.3289 88.1445 19.9058C88.0794 19.4744 87.9167 19.1774 87.6562 19.0146C87.404 18.8438 86.9971 18.742 86.4355 18.7095L84.9341 18.624V29H82.4072ZM84.9341 16.7686H86.5454C87.0093 16.7686 87.3633 16.679 87.6074 16.5C87.8597 16.3128 88.0306 15.9466 88.1201 15.4014C88.2096 14.848 88.2544 14.022 88.2544 12.9233V12.7769C88.2544 11.8654 88.2096 11.1777 88.1201 10.7139C88.0387 10.2419 87.876 9.92448 87.6318 9.76172C87.3877 9.59896 87.0174 9.51758 86.521 9.51758H84.9341V16.7686ZM93.9429 29V10.6895H96.4575V29H93.9429ZM93.9429 9.00488V6.70996H96.4575V9.00488H93.9429ZM103.477 29.2441C102.174 29.2441 101.186 28.8372 100.51 28.0234C99.8348 27.2015 99.4971 25.8424 99.4971 23.9463V22.5669H101.926V23.9341C101.926 24.9595 102.036 25.7448 102.256 26.29C102.484 26.8353 102.854 27.1079 103.367 27.1079C103.879 27.1079 104.254 26.9411 104.49 26.6074C104.734 26.2738 104.856 25.6756 104.856 24.813C104.856 24.3817 104.791 23.9544 104.661 23.5312C104.53 23.0999 104.331 22.6768 104.062 22.2617C103.794 21.8385 103.448 21.4276 103.025 21.0288L101.731 19.7959C100.958 19.0553 100.368 18.27 99.9609 17.4399C99.554 16.6017 99.3506 15.7147 99.3506 14.7788C99.3506 13.2977 99.7005 12.2113 100.4 11.5195C101.1 10.8197 102.065 10.4697 103.293 10.4697C104.115 10.4697 104.807 10.6488 105.369 11.0068C105.93 11.3649 106.353 11.959 106.638 12.7891C106.923 13.6191 107.065 14.7503 107.065 16.1826V17.0615H104.685V15.792C104.685 14.7666 104.583 13.9813 104.38 13.436C104.185 12.8908 103.831 12.6182 103.318 12.6182C102.821 12.6182 102.447 12.7646 102.195 13.0576C101.951 13.3424 101.816 13.8674 101.792 14.6323C101.784 15.0229 101.833 15.4176 101.938 15.8164C102.052 16.2152 102.236 16.6099 102.488 17.0005C102.74 17.3911 103.066 17.7736 103.464 18.1479L104.783 19.3809C105.637 20.1702 106.28 21.0207 106.711 21.9321C107.151 22.8354 107.371 23.7917 107.371 24.8008C107.371 26.1842 107.053 27.2707 106.418 28.0601C105.792 28.8494 104.811 29.2441 103.477 29.2441ZM113.633 29.2197C112.754 29.2197 112.046 29.0692 111.509 28.7681C110.98 28.4588 110.577 28.0234 110.3 27.4619C110.024 26.9004 109.836 26.229 109.739 25.4478C109.649 24.6584 109.604 23.7876 109.604 22.8354V16.3657C109.604 15.5031 109.666 14.7137 109.788 13.9976C109.91 13.2733 110.121 12.6507 110.422 12.1299C110.723 11.6009 111.143 11.194 111.68 10.9092C112.217 10.6162 112.9 10.4697 113.73 10.4697C114.569 10.4697 115.244 10.6162 115.757 10.9092C116.27 11.2021 116.656 11.6172 116.917 12.1543C117.185 12.6833 117.364 13.318 117.454 14.0586C117.543 14.791 117.588 15.5967 117.588 16.4756V19.9302H112.119V23.5801C112.119 24.7357 112.196 25.6187 112.351 26.229C112.514 26.8312 112.949 27.1323 113.657 27.1323C114.121 27.1323 114.451 26.9899 114.646 26.7051C114.849 26.4121 114.972 26.0052 115.012 25.4844C115.061 24.9554 115.085 24.3328 115.085 23.6167V22.1396H117.539V22.9209C117.539 23.873 117.498 24.7357 117.417 25.5088C117.344 26.2819 117.181 26.9451 116.929 27.4985C116.676 28.0519 116.286 28.4792 115.757 28.7803C115.236 29.0732 114.528 29.2197 113.633 29.2197ZM112.107 18.2334H115.085V15.9019C115.085 15.1694 115.061 14.555 115.012 14.0586C114.963 13.554 114.845 13.1756 114.658 12.9233C114.471 12.6629 114.162 12.5327 113.73 12.5327C113.25 12.5327 112.892 12.6792 112.656 12.9722C112.428 13.2651 112.278 13.672 112.205 14.1929C112.139 14.7056 112.107 15.3037 112.107 15.9873V18.2334Z" fill="#2A5392"/>
<path d="M19.0969 31.1344L1.8684 13.8916C0.672078 12.695 0 11.0722 0 9.38015C0 7.68809 0.672078 6.06531 1.8684 4.8687C3.06563 3.67215 4.68899 3 6.38164 3C8.07429 3 9.69769 3.67215 10.8949 4.8687L28.1341 22.1115C29.3305 23.3081 30.0025 24.9309 30.0025 26.623C30.0025 28.315 29.3305 29.9378 28.1341 31.1344C27.5414 31.7289 26.8371 32.2006 26.0617 32.5225C25.2863 32.8443 24.4551 33.01 23.6155 33.01C22.776 33.01 21.9447 32.8443 21.1693 32.5225C20.3939 32.2006 19.6897 31.7289 19.0969 31.1344Z" fill="url(#paint0_linear_156_55)"/>
<path d="M10.8806 31.1345L28.1198 13.8917C29.3161 12.6951 29.9882 11.0723 29.9882 9.38027C29.9882 7.68821 29.3161 6.06543 28.1198 4.86882C26.9232 3.67249 25.3004 3.00043 23.6083 3.00043C21.9163 3.00043 20.2935 3.67249 19.0969 4.86882L1.8684 22.1116C0.672078 23.3083 0 24.931 0 26.6231C0 28.3152 0.672078 29.9379 1.8684 31.1345C3.06504 32.3267 4.68532 32.9961 6.37446 32.9961C8.0636 32.9961 9.68393 32.3267 10.8806 31.1345Z" fill="url(#paint1_linear_156_55)"/>
<g style="mix-blend-mode:multiply" opacity="0.3">
<path d="M5.96583 18.0034L10.4719 22.513L1.8684 31.1344C0.672078 29.9378 0 28.315 0 26.623C0 24.9309 0.672078 23.3081 1.8684 22.1115L5.96583 18.0034Z" fill="white"/>
<path d="M28.1239 4.86867L19.5204 13.4901L15.0107 8.98042L19.1153 4.86867C20.3118 3.6776 21.9313 3.00891 23.6196 3.00891C25.3079 3.00891 26.9274 3.6776 28.1239 4.86867Z" fill="white"/>
<path style="mix-blend-mode:multiply" d="M10.4726 22.513L14.9931 27.0191L10.8813 31.1272C9.68471 32.3236 8.06194 32.9956 6.36988 32.9956C4.67782 32.9956 3.05501 32.3236 1.8584 31.1272L10.4726 22.513Z" fill="url(#paint2_linear_156_55)"/>
<path style="mix-blend-mode:multiply" d="M28.1234 13.8952L24.0152 18.0033L19.502 13.4901L28.1054 4.8866C29.2989 6.08071 29.9708 7.69892 29.9742 9.38718C29.9776 11.0754 29.3121 12.6963 28.1234 13.8952Z" fill="url(#paint3_linear_156_55)"/>
<g style="mix-blend-mode:multiply">
<path d="M24.0152 18.0033L19.5019 22.513L14.9923 27.0262L10.4791 22.513L5.96582 18.0033L10.4791 13.4901L14.9923 8.98041L19.5019 13.4901L24.0152 18.0033Z" fill="white"/>
</g>
<path style="mix-blend-mode:multiply" d="M1.86871 4.86865L10.4722 13.4901L5.95896 18.0033L1.86871 13.8951C0.672166 12.6979 0 11.0745 0 9.3819C0 7.68925 0.672166 6.06587 1.86871 4.86865Z" fill="url(#paint4_linear_156_55)"/>
<path style="mix-blend-mode:multiply" d="M28.1233 31.1344C26.926 32.331 25.3027 33.0031 23.61 33.0031C21.9174 33.0031 20.294 32.331 19.0968 31.1344L14.9922 27.0191L19.5018 22.5059L28.1233 31.1344Z" fill="url(#paint5_linear_156_55)"/>
<path d="M10.8813 4.86873L14.993 8.98048L10.4726 13.4901L1.86914 4.88665C3.06294 3.69123 4.68209 3.01802 6.37152 3.01466C8.06095 3.0113 9.68276 3.67806 10.8813 4.86873Z" fill="white"/>
<path d="M28.124 31.1344L19.5205 22.513L24.0337 18.0034L28.1419 22.1115C29.3359 23.3105 30.0047 24.9346 30.0014 26.6267C29.998 28.3188 29.3227 29.9402 28.124 31.1344Z" fill="white"/>
</g>
<path d="M10.4725 13.4901L5.96289 18.0033L10.4725 22.513L14.9858 27.0262V8.98041L10.4725 13.4901Z" fill="#00DAC8"/>
<path d="M19.495 13.4901L14.9854 8.98041V27.0262L19.495 22.513L24.0083 18.0033L19.495 13.4901Z" fill="#28AAD6"/>
<path style="mix-blend-mode:multiply" d="M5.96269 17.9998L14.9856 27.0227L1.85449 22.1079L5.96269 17.9998Z" fill="url(#paint6_linear_156_55)"/>
<path style="mix-blend-mode:multiply" d="M24.0122 17.9998L14.9893 8.97327L28.1203 13.888L24.0122 17.9998Z" fill="url(#paint7_linear_156_55)"/>
<defs>
<linearGradient id="paint0_linear_156_55" x1="14.9887" y1="-1.56599" x2="14.9887" y2="37.0171" gradientUnits="userSpaceOnUse">
<stop stop-color="#00BAEB"/>
<stop offset="0.05" stop-color="#07B2E4"/>
<stop offset="0.35" stop-color="#2988C3"/>
<stop offset="0.61" stop-color="#4269AA"/>
<stop offset="0.84" stop-color="#51579B"/>
<stop offset="1" stop-color="#565096"/>
</linearGradient>
<linearGradient id="paint1_linear_156_55" x1="34.5975" y1="-1.60889" x2="-6.41961" y2="39.4083" gradientUnits="userSpaceOnUse">
<stop stop-color="#00BAEB"/>
<stop offset="0.05" stop-color="#07B2E4"/>
<stop offset="0.35" stop-color="#2988C3"/>
<stop offset="0.61" stop-color="#4269AA"/>
<stop offset="0.84" stop-color="#51579B"/>
<stop offset="1" stop-color="#565096"/>
</linearGradient>
<linearGradient id="paint2_linear_156_55" x1="1.8584" y1="27.7575" x2="14.9931" y2="27.7575" gradientUnits="userSpaceOnUse">
<stop stop-color="white"/>
<stop offset="0.11" stop-color="#FAFAFA"/>
<stop offset="0.23" stop-color="#ECECEC"/>
<stop offset="0.36" stop-color="#D5D5D5"/>
<stop offset="0.5" stop-color="#B5B5B5"/>
<stop offset="0.64" stop-color="#8C8C8C"/>
<stop offset="0.79" stop-color="#595959"/>
<stop offset="0.93" stop-color="#1E1E1E"/>
<stop offset="1"/>
</linearGradient>
<linearGradient id="paint3_linear_156_55" x1="19.502" y1="11.436" x2="29.9911" y2="11.436" gradientUnits="userSpaceOnUse">
<stop stop-color="white"/>
<stop offset="0.11" stop-color="#FAFAFA"/>
<stop offset="0.23" stop-color="#ECECEC"/>
<stop offset="0.36" stop-color="#D5D5D5"/>
<stop offset="0.5" stop-color="#B5B5B5"/>
<stop offset="0.64" stop-color="#8C8C8C"/>
<stop offset="0.79" stop-color="#595959"/>
<stop offset="0.93" stop-color="#1E1E1E"/>
<stop offset="1"/>
</linearGradient>
<linearGradient id="paint4_linear_156_55" x1="-0.00973003" y1="11.436" x2="10.4794" y2="11.436" gradientUnits="userSpaceOnUse">
<stop stop-color="white"/>
<stop offset="0.11" stop-color="#FAFAFA"/>
<stop offset="0.23" stop-color="#ECECEC"/>
<stop offset="0.36" stop-color="#D5D5D5"/>
<stop offset="0.5" stop-color="#B5B5B5"/>
<stop offset="0.64" stop-color="#8C8C8C"/>
<stop offset="0.79" stop-color="#595959"/>
<stop offset="0.93" stop-color="#1E1E1E"/>
<stop offset="1"/>
</linearGradient>
<linearGradient id="paint5_linear_156_55" x1="14.9922" y1="27.7576" x2="28.1233" y2="27.7576" gradientUnits="userSpaceOnUse">
<stop stop-color="white"/>
<stop offset="0.11" stop-color="#FAFAFA"/>
<stop offset="0.23" stop-color="#ECECEC"/>
<stop offset="0.36" stop-color="#D5D5D5"/>
<stop offset="0.5" stop-color="#B5B5B5"/>
<stop offset="0.64" stop-color="#8C8C8C"/>
<stop offset="0.79" stop-color="#595959"/>
<stop offset="0.93" stop-color="#1E1E1E"/>
<stop offset="1"/>
</linearGradient>
<linearGradient id="paint6_linear_156_55" x1="2.94427" y1="30.2776" x2="11.7664" y2="21.0755" gradientUnits="userSpaceOnUse">
<stop offset="0.49" stop-color="white"/>
<stop offset="0.55" stop-color="#FAFAFA"/>
<stop offset="0.61" stop-color="#ECECEC"/>
<stop offset="0.68" stop-color="#D5D5D5"/>
<stop offset="0.75" stop-color="#B5B5B5"/>
<stop offset="0.82" stop-color="#8C8C8C"/>
<stop offset="0.89" stop-color="#595959"/>
<stop offset="0.97" stop-color="#1E1E1E"/>
<stop offset="1"/>
</linearGradient>
<linearGradient id="paint7_linear_156_55" x1="27.0306" y1="5.71828" x2="18.2084" y2="14.9204" gradientUnits="userSpaceOnUse">
<stop offset="0.49" stop-color="white"/>
<stop offset="0.55" stop-color="#FAFAFA"/>
<stop offset="0.61" stop-color="#ECECEC"/>
<stop offset="0.68" stop-color="#D5D5D5"/>
<stop offset="0.75" stop-color="#B5B5B5"/>
<stop offset="0.82" stop-color="#8C8C8C"/>
<stop offset="0.89" stop-color="#595959"/>
<stop offset="0.97" stop-color="#1E1E1E"/>
<stop offset="1"/>
</linearGradient>
</defs>
</svg>
